<svg width="16" height="16" xmlns="http://www.w3.org/2000/svg">
 <g>
  <title>Layer 1</title>
  <path transform="rotate(-47.9125 8.30549 7.23804)" fill="#bebebe" d="m8.21854,12.8024c0.25235,-0.12279 0.48263,-0.28649 0.71474,-0.4324c0.0791,-0.04969 0.16897,-0.12866 0.24228,-0.15281c0.18681,-0.0613 0.47913,0.04593 0.71727,0.05713c0.59521,0.02778 0.98057,-0.02984 1.46987,-0.12691c0.22899,-0.04533 0.46607,-0.08781 0.66705,-0.16533c0.17168,-0.06627 0.36852,-0.21435 0.56063,-0.3389c0.30359,-0.19686 0.51036,-0.38223 0.74708,-0.61958c0.39566,-0.39645 0.64475,-0.89554 0.93426,-1.4439c0.12643,-0.23935 0.30851,-0.59598 0.31757,-0.8792c0.16736,-0.33376 0.42164,-0.53752 0.48543,-1.02608c-0.08918,-0.2857 -0.32028,-0.03165 -0.45954,0.06348c-0.11516,0.07892 -0.23906,0.1732 -0.34111,0.21103c-0.53041,0.19674 -1.26958,-0.08448 -1.78601,0.0958c-0.18304,0.06385 -0.34162,0.19275 -0.52347,0.24734c-0.1727,0.05198 -0.30478,-0.04006 -0.4279,-0.11002c-0.0654,-0.03728 -0.13429,-0.08775 -0.19371,-0.12787c-0.38476,-0.26162 -0.76933,-0.53897 -1.2859,-0.64343c-0.41461,-0.0837 -0.77481,0.07601 -1.11183,0.16231c-0.08554,0.02197 -0.19606,0.01398 -0.26095,0.11008c0.269,0.07994 0.49224,0.21629 0.77315,0.36184c0.36898,0.19099 0.6556,0.3202 0.79504,0.70364c-0.16515,0.05689 -0.35643,0.01471 -0.52834,-0.02493c-0.18773,-0.04309 -0.37404,-0.08358 -0.55419,-0.12255c-0.76064,-0.16479 -1.3335,-0.44142 -1.91253,-0.80029c-0.28128,-0.17411 -0.54048,-0.41673 -0.7789,-0.62037c-0.48828,-0.41757 -0.9051,-0.93609 -1.29823,-1.50096c-0.17794,-0.25575 -0.33688,-0.57601 -0.52986,-0.88126c-0.08435,-0.13344 -0.16915,-0.28232 -0.2593,-0.44711c-0.08614,-0.15656 -0.21758,-0.34846 -0.23579,-0.48541c-0.02051,-0.15123 0.04052,-0.31705 0.07124,-0.48233c0.05312,-0.2871 0.0923,-0.59507 0.07451,-0.88985c-0.02327,-0.38126 -0.08803,-0.7526 -0.22379,-1.04145c-0.05891,0.06893 -0.08297,0.19027 -0.11332,0.30138c-0.14883,0.2503 -0.34682,0.5003 -0.35174,0.91685c-0.40651,-0.27645 -1.19613,-0.25327 -1.6702,-0.24607c-0.14253,0.00218 -0.28772,-0.01767 -0.40578,0.05525c0.24899,0.1899 0.43176,0.43022 0.64819,0.67556c0.32745,0.37067 0.59829,0.68294 1.08101,0.88126c0.15646,0.06427 0.3356,0.09907 0.42132,0.21817c0.0659,0.09114 0.08596,0.29303 0.11939,0.48747c0.08991,0.52572 0.20682,1.08351 0.31113,1.52596c0.31301,1.32994 0.79077,2.51191 1.42641,3.42985c0.32212,0.4655 0.70679,0.84459 1.12153,1.26609c0.07087,0.14621 0.20365,0.34344 0.23106,0.56639c0.02805,0.22954 -0.02254,0.43101 -0.13034,0.58521c-0.23584,0.22646 -0.60639,0.25151 -0.76662,0.59047c0.20949,0.19844 0.46943,0.2566 0.72449,0.28903c0.55102,0.07014 1.06726,0.01567 1.4947,-0.19257l0,-0.00001z" id="svg_7" stroke-width="0.1"/>
 </g>

</svg>